<?xml version="1.0" encoding="UTF-8"?>
<svg version="1.1" xmlns="http://www.w3.org/2000/svg" width="512" height="512">
<path d="M0 0 C3.66197059 0.0068583 7.32390015 -0.00372391 10.98586226 -0.01193976 C18.13859244 -0.0252078 25.29122763 -0.02243051 32.44396138 -0.01370184 C38.26248128 -0.00689821 44.08097476 -0.00602009 49.89949751 -0.00927329 C50.7308692 -0.00973299 51.56224089 -0.01019269 52.41880566 -0.01066632 C54.10826342 -0.01162559 55.79772118 -0.01259824 57.48717892 -0.01358409 C73.29103512 -0.02211768 89.09483893 -0.01233585 104.89868653 0.00381701 C118.42883943 0.01721834 131.95891509 0.01488967 145.4890666 0.00106072 C161.24034694 -0.0150311 176.99158148 -0.0212939 192.7428689 -0.01210248 C194.4257547 -0.01114694 196.1086405 -0.01020383 197.79152632 -0.00927329 C199.03321147 -0.00857905 199.03321147 -0.00857905 200.29998118 -0.00787079 C206.10456756 -0.00529168 211.90912465 -0.00962847 217.71370649 -0.01671195 C224.79750061 -0.02516732 231.88119513 -0.02276265 238.96497798 -0.00686972 C242.57210164 0.00095912 246.17905987 0.00419795 249.78618193 -0.00581717 C277.60148244 -0.07668858 277.60148244 -0.07668858 290.84551191 3.39217401 C291.66360334 3.60413226 292.48169477 3.81609052 293.32457685 4.03447175 C308.98961777 8.52364758 324.77671309 16.42249793 336.84551191 27.39217401 C338.08301191 28.45371697 338.08301191 28.45371697 339.34551191 29.53670526 C361.46117804 48.7867744 376.79598151 75.96349017 379.84551191 105.39217401 C380.35993609 114.43209692 380.26281676 123.49534698 380.23768592 132.54666209 C380.23082761 136.20863268 380.24140983 139.87056224 380.24962568 143.53252435 C380.26289372 150.68525453 380.26011642 157.83788973 380.25138776 164.99062347 C380.24458413 170.80914338 380.24370601 176.62763685 380.24695921 182.4461596 C380.24741891 183.27753129 380.24787861 184.10890298 380.24835224 184.96546775 C380.24931151 186.65492551 380.25028415 188.34438327 380.25127001 190.03384101 C380.2598036 205.83769721 380.25002176 221.64150102 380.23386891 237.44534862 C380.22046758 250.97550152 380.22279625 264.50557718 380.23662519 278.03572869 C380.25271702 293.78700904 380.25897982 309.53824358 380.2497884 325.28953099 C380.24883286 326.97241679 380.24788975 328.6553026 380.24695921 330.33818841 C380.24649638 331.16597851 380.24603356 331.99376862 380.2455567 332.84664327 C380.2429776 338.65122966 380.24731439 344.45578674 380.25439787 350.26036859 C380.26285324 357.3441627 380.26044857 364.42785722 380.24455564 371.51164007 C380.2367268 375.11876373 380.23348797 378.72572197 380.24350309 382.33284402 C380.3143745 410.14814453 380.3143745 410.14814453 376.84551191 423.39217401 C376.63355366 424.21026544 376.4215954 425.02835687 376.20321417 425.87123895 C371.71403834 441.53627986 363.81518799 457.32337518 352.84551191 469.39217401 C351.78396894 470.62967401 351.78396894 470.62967401 350.70098066 471.89217401 C331.45091152 494.00784013 304.27419575 509.3426436 274.84551191 512.39217401 C265.805589 512.90659818 256.74233894 512.80947885 247.69102383 512.78434801 C244.02905324 512.77748971 240.36712368 512.78807192 236.70516157 512.79628778 C229.55243139 512.80955581 222.39979619 512.80677852 215.24706244 512.79804985 C209.42854254 512.79124622 203.61004907 512.7903681 197.79152632 512.7936213 C196.96015463 512.794081 196.12878294 512.7945407 195.27221817 512.79501433 C193.58276041 512.7959736 191.89330265 512.79694625 190.2038449 512.7979321 C174.39998871 512.8064657 158.5961849 512.79668386 142.7923373 512.780531 C129.26218439 512.76712968 115.73210874 512.76945834 102.20195723 512.78328729 C86.45067688 512.79937911 70.69944234 512.80564191 54.94815493 512.7964505 C53.26526913 512.79549495 51.58238332 512.79455184 49.89949751 512.7936213 C48.65781235 512.79292706 48.65781235 512.79292706 47.39104265 512.7922188 C41.58645626 512.78963969 35.78189918 512.79397648 29.97731733 512.80105996 C22.89352322 512.80951533 15.8098287 512.80711066 8.72604585 512.79121773 C5.11892219 512.78338889 1.51196395 512.78015007 -2.0951581 512.79016519 C-29.91045861 512.86103659 -29.91045861 512.86103659 -43.15448809 509.39217401 C-43.97257952 509.18021575 -44.79067095 508.96825749 -45.63355303 508.74987626 C-61.29859394 504.26070044 -77.08568926 496.36185008 -89.15448809 485.39217401 C-89.97948809 484.68447869 -90.80448809 483.97678338 -91.65448809 483.24764276 C-113.77015422 463.99757361 -129.10495768 436.82085784 -132.15448809 407.39217401 C-132.66891226 398.3522511 -132.57179293 389.28900103 -132.54666209 380.23768592 C-132.53980379 376.57571533 -132.55038601 372.91378577 -132.55860186 369.25182366 C-132.5718699 362.09909348 -132.5690926 354.94645829 -132.56036393 347.79372454 C-132.5535603 341.97520463 -132.55268218 336.15671116 -132.55593538 330.33818841 C-132.55639508 329.50681672 -132.55685478 328.67544503 -132.55732841 327.81888026 C-132.55828769 326.1294225 -132.55926033 324.43996474 -132.56024618 322.750507 C-132.56877978 306.9466508 -132.55899794 291.14284699 -132.54284509 275.33899939 C-132.52944376 261.80884649 -132.53177242 248.27877083 -132.54560137 234.74861932 C-132.56169319 218.99733898 -132.56795599 203.24610443 -132.55876458 187.49481702 C-132.55780903 185.81193122 -132.55686592 184.12904541 -132.55593538 182.4461596 C-132.55547256 181.6183695 -132.55500973 180.79057939 -132.55453288 179.93770474 C-132.55195377 174.13311836 -132.55629056 168.32856127 -132.56337404 162.52397943 C-132.57182941 155.44018531 -132.56942474 148.35649079 -132.55353181 141.27270794 C-132.54570297 137.66558428 -132.54246415 134.05862604 -132.55247927 130.45150399 C-132.62335067 102.63620348 -132.62335067 102.63620348 -129.15448809 89.39217401 C-128.94252983 88.57408257 -128.73057158 87.75599114 -128.51219034 86.91310906 C-124.02301452 71.24806815 -116.12416416 55.46097283 -105.15448809 43.39217401 C-104.44679277 42.56717401 -103.73909746 41.74217401 -103.00995684 40.89217401 C-75.634922 9.44204642 -40.28969581 -0.11186373 0 0 Z " fill="#141414" transform="translate(132.15448808670044,-0.39217400550842285)"/>
<path d="M0 0 C1.00652618 -0.00852997 2.01305237 -0.01705994 3.05007935 -0.02584839 C4.69750122 -0.02448883 4.69750122 -0.02448883 6.37820435 -0.02310181 C8.12026657 -0.03317764 8.12026657 -0.03317764 9.89752197 -0.04345703 C13.74285135 -0.06247982 17.5880066 -0.06636339 21.43338013 -0.06851196 C23.42891358 -0.07331318 25.42444707 -0.07811776 27.41997921 -0.08343279 C33.69512965 -0.09971037 39.97022272 -0.10460234 46.24539185 -0.10317993 C52.71203121 -0.10197869 59.17833672 -0.12307808 65.64489162 -0.15466726 C71.20257313 -0.18084607 76.76014571 -0.19154656 82.31788838 -0.19026911 C85.63474992 -0.18975993 88.95124829 -0.19726448 92.26806259 -0.21662521 C95.96912134 -0.23620614 99.66931944 -0.23047721 103.37039185 -0.21841431 C104.46462463 -0.22965332 105.55885742 -0.24089233 106.68624878 -0.25247192 C108.20449753 -0.23988846 108.20449753 -0.23988846 109.75341797 -0.22705078 C110.6276132 -0.22814032 111.50180843 -0.22922985 112.40249443 -0.2303524 C118.92088896 1.01703928 123.49299779 6.47428003 127.98925781 11.01248169 C128.6681705 11.68968553 129.34708319 12.36688937 130.04656899 13.06461453 C132.31293191 15.32769168 134.57208745 17.59782701 136.83132935 19.86801147 C138.45737977 21.49462621 140.08387106 23.12080035 141.71076965 24.74656677 C146.12178797 29.15701135 150.52661327 33.57359453 154.9303565 37.99130154 C159.53521829 42.60866706 164.14574565 47.22036826 168.75567627 51.83267212 C176.49098893 59.5734944 184.22280043 67.31779777 191.95193481 75.06478882 C199.91149939 83.04272323 207.87317062 91.01854557 215.837677 98.99154663 C216.32895493 99.48335001 216.82023286 99.97515338 217.326398 100.48185989 C219.79111149 102.94918354 222.25586638 105.41646582 224.72064185 107.88372755 C245.15474696 128.33855189 265.58152003 148.80068799 286.00369263 169.26742554 C282.91095812 175.74557412 278.20957006 181.54144969 272.00369263 185.26742554 C265.79732464 187.30432308 259.1101102 186.76769244 252.66775513 186.57992554 C250.81600411 186.56766754 248.96421598 186.56018408 247.11242676 186.55722046 C243.25326757 186.53891498 239.39749843 186.48164718 235.53933716 186.39242554 C230.60288989 186.27881716 225.6690857 186.23552304 220.73145485 186.21769714 C216.0015514 186.19705865 211.27230572 186.13894744 206.54275513 186.07992554 C205.64680256 186.07240265 204.75084999 186.06487976 203.82774734 186.05712891 C201.28604698 186.02953285 198.74639216 185.97496595 196.20535278 185.91195679 C195.46031494 185.90748535 194.7152771 185.90301392 193.94766235 185.89840698 C184.33430322 185.58369259 178.98057056 178.51987765 172.63357544 172.10848999 C171.70932266 171.18292297 170.78506989 170.25735596 169.83280945 169.30374146 C167.83120871 167.29921904 165.83279166 165.29159537 163.83683014 163.2814579 C160.68202245 160.1043111 157.52007454 156.93433469 154.35714722 153.76527405 C149.35872081 148.75548997 144.36499525 143.74105036 139.37331557 138.7245447 C130.42305289 129.72985347 121.46710052 120.74083558 112.50597835 111.75696343 C109.3611257 108.60369407 106.21910333 105.44763875 103.07931471 102.28932726 C101.59903357 100.80097926 100.117643 99.31374627 98.63575745 97.82699585 C96.82680859 96.01199925 95.01969291 94.19517313 93.21470642 92.37623596 C92.02457191 91.18382797 92.02457191 91.18382797 90.81039429 89.96733093 C90.11946812 89.27288533 89.42854195 88.57843973 88.71667862 87.86295033 C84.93722286 84.34265572 80.66412666 85.09301816 75.7805481 85.06210327 C74.34633514 85.04725388 74.34633514 85.04725388 72.88314819 85.03210449 C69.71241764 85.00043433 66.54167209 84.97571027 63.37088013 84.95101929 C61.17655033 84.93045452 58.98222453 84.90945818 56.78790283 84.88804626 C51.00439694 84.83277627 45.22085502 84.78338874 39.43728638 84.73519897 C33.53881614 84.68501989 27.64039842 84.6293151 21.74197388 84.57406616 C10.16259163 84.46642433 -1.41683616 84.36499277 -12.99630737 84.26742554 C-13.08902116 74.31430621 -13.16007937 64.36128976 -13.20355606 54.40782642 C-13.22442364 49.78591971 -13.25272601 45.16430861 -13.29806519 40.54257202 C-13.34155272 36.08162725 -13.36545072 31.62096668 -13.37581635 27.15982628 C-13.38320252 25.45855931 -13.39762614 23.75730774 -13.4192276 22.05616188 C-13.44830107 19.671571 -13.45226186 17.28815171 -13.45040894 14.90341187 C-13.46479004 14.20138138 -13.47917114 13.49935089 -13.49398804 12.77604675 C-13.46494881 9.31814542 -13.06218903 7.37308954 -11.21792603 4.41517639 C-7.64692847 0.96291286 -4.93675807 0.01894401 0 0 Z " fill="#A475F9" transform="translate(73.99630737304688,213.73257446289063)"/>
<path d="M0 0 C1.85175102 0.012258 3.70353915 0.01974145 5.55532837 0.02270508 C9.41448756 0.04101056 13.2702567 0.09827835 17.12841797 0.1875 C22.06486524 0.30110837 26.99866943 0.34440249 31.93630028 0.36222839 C36.66620373 0.38286688 41.39544941 0.4409781 46.125 0.5 C47.02095257 0.50752289 47.91690514 0.51504578 48.84000778 0.52279663 C51.38170814 0.55039269 53.92136297 0.60495959 56.46240234 0.66796875 C57.20744019 0.67244019 57.95247803 0.67691162 58.72009277 0.68151855 C68.33345191 0.99623295 73.68718457 8.06004789 80.03417969 14.47143555 C80.95843246 15.39700256 81.88268524 16.32256958 82.83494568 17.27618408 C84.83654641 19.2807065 86.83496347 21.28833016 88.83092499 23.29846764 C91.98573268 26.47561444 95.14768058 29.64559085 98.31060791 32.81465149 C103.30903431 37.82443556 108.30275988 42.83887518 113.29443955 47.85538083 C122.24470223 56.85007207 131.20065461 65.83908996 140.16177678 74.82296211 C143.30662942 77.97623147 146.4486518 81.13228678 149.58844042 84.29059827 C151.06872155 85.77894628 152.55011212 87.26617927 154.03199768 88.75292969 C155.84094654 90.56792628 157.64806222 92.38475241 159.45304871 94.20368958 C160.64318321 95.39609756 160.64318321 95.39609756 161.85736084 96.6125946 C162.8937501 97.65426301 162.8937501 97.65426301 163.95107651 98.71697521 C167.73053227 102.23726982 172.00362847 101.48690738 176.88720703 101.51782227 C178.32141998 101.53267166 178.32141998 101.53267166 179.78460693 101.54782104 C182.95533749 101.5794912 186.12608304 101.60421527 189.296875 101.62890625 C191.4912048 101.64947101 193.6855306 101.67046735 195.87985229 101.69187927 C201.66335818 101.74714927 207.44690011 101.79653679 213.23046875 101.84472656 C219.12893899 101.89490565 225.02735671 101.95061044 230.92578125 102.00585938 C242.5051635 102.11350121 254.08459129 102.21493277 265.6640625 102.3125 C265.75683579 112.11796348 265.82786467 121.92332215 265.87131119 131.72913551 C265.89216583 136.28263502 265.92044443 140.83583374 265.96582031 145.38916016 C266.00935418 149.78527143 266.03321558 154.18109379 266.04357147 158.57740402 C266.05094934 160.25272544 266.06535679 161.92803145 266.08698273 163.60322952 C266.11611794 165.95409276 266.12001443 168.30376976 266.11816406 170.65478516 C266.13254517 171.34386963 266.14692627 172.0329541 266.16174316 172.74291992 C266.11964507 177.70193657 264.83330027 180.537303 261.6640625 184.3125 C258.6063219 186.23542612 256.24932957 186.56618183 252.66775513 186.57992554 C251.15796585 186.59272049 251.15796585 186.59272049 249.61767578 186.60577393 C248.51939453 186.60486755 247.42111328 186.60396118 246.28955078 186.60302734 C244.54748856 186.61310318 244.54748856 186.61310318 242.77023315 186.62338257 C238.92490377 186.64240535 235.07974853 186.64628892 231.234375 186.6484375 C229.23884155 186.65323872 227.24330806 186.6580433 225.24777591 186.66335833 C218.97262547 186.67963591 212.69753241 186.68452787 206.42236328 186.68310547 C199.95572391 186.68190423 193.4894184 186.70300362 187.02286351 186.7345928 C181.465182 186.7607716 175.90760942 186.7714721 170.34986675 186.77019465 C167.03300521 186.76968547 163.71650684 186.77719002 160.39969254 186.79655075 C156.69863379 186.81613168 152.99843569 186.81040275 149.29736328 186.79833984 C148.20313049 186.80957886 147.10889771 186.82081787 145.98150635 186.83239746 C144.96934052 186.82400848 143.95717468 186.81561951 142.91433716 186.80697632 C142.04014193 186.80806585 141.16594669 186.80915539 140.2652607 186.81027794 C133.74686617 185.56288626 129.17475734 180.1056455 124.67849731 175.56744385 C123.99958463 174.89024001 123.32067194 174.21303617 122.62118614 173.515311 C120.35482322 171.25223385 118.09566767 168.98209852 115.83642578 166.71191406 C114.21037535 165.08529932 112.58388407 163.45912518 110.95698547 161.83335876 C106.54596716 157.42291419 102.14114186 153.00633101 97.73739862 148.588624 C93.13253684 143.97125848 88.52200948 139.35955727 83.91207886 134.74725342 C76.1767662 127.00643114 68.4449547 119.26212777 60.71582031 111.51513672 C52.75625574 103.53720231 44.7945845 95.56137997 36.83007812 87.58837891 C36.3388002 87.09657553 35.84752227 86.60477215 35.34135713 86.09806564 C32.87664364 83.630742 30.41188875 81.16345971 27.94711328 78.69619799 C7.51300817 58.24137365 -12.9137649 37.77923754 -33.3359375 17.3125 C-26.02950578 2.00819563 -15.75964084 -0.45932565 0 0 Z " fill="#A475F9" transform="translate(185.3359375,111.6875)"/>
<path d="M0 0 C11.68661151 5.92630726 20.38971577 14.56193655 25.1875 26.875 C29.03174432 39.54899301 27.99918813 52.64845623 21.7890625 64.32421875 C16.5631509 72.64743894 10.001217 78.59526242 1.1875 82.875 C0.5275 83.21402344 -0.1325 83.55304688 -0.8125 83.90234375 C-10.89499896 88.17559038 -25.09328163 87.20002041 -35.0703125 83.26171875 C-46.95323796 77.25254704 -55.37000772 68.46557055 -59.8125 55.875 C-63.18255002 45.5830127 -63.37695569 33.84857933 -58.8125 23.875 C-47.81558348 2.71562134 -23.11834589 -9.27111043 0 0 Z " fill="#A475F8" transform="translate(423.8125,110.125)"/>
<path d="M0 0 C10.11554555 6.86705734 18.12430985 16.71306443 20.75 28.88671875 C22.65153686 43.03229784 19.73403788 55.82723916 11.0703125 67.26953125 C3.21257235 75.85120907 -7.36142372 81.98007526 -19.1640625 82.60546875 C-33.27460614 82.88752465 -44.53241305 80.18088747 -55.08984375 70.234375 C-65.00057485 59.73085251 -68.67520857 47.90408605 -68.3046875 33.63671875 C-67.5732828 21.67825196 -61.19870088 11.9232009 -52.5546875 4.01953125 C-37.60222969 -8.0497172 -16.63226178 -9.82412262 0 0 Z " fill="#A475F8" transform="translate(128.9296875,321.73046875)"/>
</svg>
