<?xml version="1.0" encoding="UTF-8" standalone="no"?>
<!DOCTYPE svg PUBLIC "-//W3C//DTD SVG 1.1//EN" "http://www.w3.org/Graphics/SVG/1.1/DTD/svg11.dtd">
<svg width="100%" height="100%" viewBox="0 0 1255 259" version="1.1" xmlns="http://www.w3.org/2000/svg" xmlns:xlink="http://www.w3.org/1999/xlink" xml:space="preserve" xmlns:serif="http://www.serif.com/" style="fill-rule:evenodd;clip-rule:evenodd;stroke-linejoin:round;stroke-miterlimit:2;">
    <g transform="matrix(1,0,0,1,-2749,-96)">
        <g transform="matrix(2.67695,0,0,2.67695,0,0)">
            <g transform="matrix(1,0,0,1,-0.49,0.42)">
                <g transform="matrix(1,0,0,1,1113.58,37.31)">
                    <path d="M0,60.14C-0.96,60.14 -1.88,59.76 -2.56,59.08L-56.71,4.93C-56.71,4.93 -54.59,2.81 -51.79,0L-25.88,0C-24.93,0 -24.01,0.38 -23.33,1.06C-11.63,12.75 3.4,27.79 7.47,31.86C8.15,32.54 9.07,32.92 10.03,32.92L40.63,32.92L40.63,56.52C40.63,58.52 39.01,60.14 37.01,60.14L0,60.14Z" style="fill:white;"/>
                </g>
                <g transform="matrix(1,0,0,1,1068.09,130.37)">
                    <path d="M0,-60.14C0.96,-60.14 1.87,-59.76 2.55,-59.09L56.71,-4.93L51.78,0L25.88,0C24.92,0 24,-0.38 23.32,-1.06C11.63,-12.76 -3.41,-27.79 -7.48,-31.87C-8.16,-32.54 -9.08,-32.92 -10.03,-32.92L-40.63,-32.92L-40.63,-56.53C-40.63,-58.53 -39.02,-60.14 -37.02,-60.14L0,-60.14Z" style="fill:white;"/>
                </g>
                <g transform="matrix(-1,0,0,1,1139.77,64.47)">
                    <path d="M0.01,-28.89C-7.97,-28.89 -14.44,-22.42 -14.44,-14.45C-14.44,-6.47 -7.97,0 0.01,0C7.98,0 14.45,-6.47 14.45,-14.45C14.45,-22.42 7.98,-28.89 0.01,-28.89" style="fill:white;"/>
                </g>
                <g transform="matrix(1,0,0,1,1041.9,103.21)">
                    <path d="M0,28.89C-7.97,28.89 -14.45,22.42 -14.45,14.44C-14.45,6.47 -7.97,0 0,0C7.97,0 14.44,6.47 14.44,14.44C14.44,22.42 7.97,28.89 0,28.89" style="fill:white;"/>
                </g>
                <g transform="matrix(1,0,0,1,1213.11,122.64)">
                    <path d="M0,-78.27L-29.96,-78.27L-29.96,0L-20.23,0L-20.23,-30.08L-0.22,-30.08L15.99,0L26.95,0L9.4,-31.98C14.46,-33.4 18.51,-36.1 21.53,-40.09C24.55,-44.08 26.06,-48.79 26.06,-54.23C26.06,-59.08 24.97,-63.31 22.81,-66.92C20.65,-70.54 17.6,-73.33 13.64,-75.31C9.69,-77.28 5.15,-78.27 0,-78.27M-20.23,-39.03L-20.23,-69.33L-0.67,-69.33C4.4,-69.33 8.46,-67.95 11.52,-65.19C14.58,-62.43 16.1,-58.78 16.1,-54.23C16.1,-49.61 14.58,-45.92 11.52,-43.16C8.46,-40.4 4.36,-39.03 -0.78,-39.03L-20.23,-39.03Z" style="fill:white;fill-rule:nonzero;"/>
                </g>
                <g transform="matrix(1,0,0,1,1254.32,68.63)">
                    <path d="M0,50.99C4.28,53.45 9.18,54.68 14.7,54.68C20.21,54.68 25.12,53.45 29.4,50.99C33.69,48.53 37.02,45.1 39.41,40.7C41.79,36.3 42.99,31.23 42.99,25.49C42.99,19.75 41.79,14.69 39.41,10.29C37.02,5.89 33.69,2.46 29.4,-0C25.12,-2.46 20.21,-3.69 14.7,-3.69C9.18,-3.69 4.28,-2.46 0,-0C-4.29,2.46 -7.63,5.89 -10.01,10.29C-12.4,14.69 -13.59,19.75 -13.59,25.49C-13.59,31.23 -12.4,36.3 -10.01,40.7C-7.63,45.1 -4.29,48.53 0,50.99M24.59,43.83C21.72,45.62 18.43,46.51 14.7,46.51C10.97,46.51 7.67,45.62 4.8,43.83C1.93,42.04 -0.28,39.54 -1.85,36.34C-3.41,33.13 -4.2,29.52 -4.2,25.49C-4.2,21.47 -3.41,17.85 -1.85,14.65C-0.28,11.44 1.93,8.95 4.8,7.16C7.67,5.37 10.97,4.47 14.7,4.47C18.43,4.47 21.72,5.37 24.59,7.16C27.46,8.95 29.68,11.44 31.25,14.65C32.81,17.85 33.59,21.47 33.59,25.49C33.59,29.52 32.81,33.13 31.25,36.34C29.68,39.54 27.46,42.04 24.59,43.83" style="fill:white;fill-rule:nonzero;"/>
                </g>
                <g transform="matrix(1,0,0,1,1317.43,94.91)">
                    <path d="M0,-1.57L-21.69,27.73L-11.52,27.73L5.26,4.8L22.03,27.73L32.98,27.73L11.18,-1.57L31.53,-29.3L21.36,-29.3L5.93,-8.17L-9.28,-29.3L-20.24,-29.3L0,-1.57Z" style="fill:white;fill-rule:nonzero;"/>
                </g>
                <g transform="matrix(1,0,0,1,1361.99,68.63)">
                    <path d="M0,50.99C4.28,53.45 9.18,54.68 14.7,54.68C20.22,54.68 25.12,53.45 29.4,50.99C33.69,48.53 37.02,45.1 39.41,40.7C41.79,36.3 42.99,31.23 42.99,25.49C42.99,19.75 41.79,14.69 39.41,10.29C37.02,5.89 33.69,2.46 29.4,-0C25.12,-2.46 20.22,-3.69 14.7,-3.69C9.18,-3.69 4.28,-2.46 0,-0C-4.29,2.46 -7.62,5.89 -10.01,10.29C-12.4,14.69 -13.59,19.75 -13.59,25.49C-13.59,31.23 -12.4,36.3 -10.01,40.7C-7.62,45.1 -4.29,48.53 0,50.99M24.59,43.83C21.72,45.62 18.43,46.51 14.7,46.51C10.97,46.51 7.67,45.62 4.8,43.83C1.93,42.04 -0.28,39.54 -1.85,36.34C-3.41,33.13 -4.2,29.52 -4.2,25.49C-4.2,21.47 -3.41,17.85 -1.85,14.65C-0.28,11.44 1.93,8.95 4.8,7.16C7.67,5.37 10.97,4.47 14.7,4.47C18.43,4.47 21.72,5.37 24.59,7.16C27.46,8.95 29.68,11.44 31.25,14.65C32.81,17.85 33.6,21.47 33.6,25.49C33.6,29.52 32.81,33.13 31.25,36.34C29.68,39.54 27.46,42.04 24.59,43.83" style="fill:white;fill-rule:nonzero;"/>
                </g>
                <g transform="matrix(1,0,0,1,1490.23,116.6)">
                    <path d="M0,-45.62C-3.99,-49.65 -9.19,-51.66 -15.6,-51.66C-24.69,-51.66 -31.29,-48.04 -35.39,-40.81C-36.95,-44.39 -39.32,-47.09 -42.49,-48.92C-45.65,-50.74 -49.29,-51.66 -53.39,-51.66C-60.39,-51.66 -65.95,-48.83 -70.05,-43.16L-71.28,-50.99L-79.22,-50.99L-79.22,6.04L-70.05,6.04L-70.05,-24.04C-70.05,-29.78 -68.69,-34.42 -65.97,-37.96C-63.25,-41.5 -59.57,-43.27 -54.95,-43.27C-50.56,-43.27 -47.16,-41.82 -44.78,-38.91C-42.39,-36 -41.2,-31.79 -41.2,-26.28L-41.2,6.04L-32.03,6.04L-32.03,-24.49C-32.03,-30.3 -30.67,-34.89 -27.95,-38.24C-25.23,-41.6 -21.48,-43.27 -16.71,-43.27C-12.39,-43.27 -9.06,-41.82 -6.71,-38.91C-4.36,-36 -3.19,-31.79 -3.19,-26.28L-3.19,6.04L5.98,6.04L5.98,-26.84C5.98,-35.33 3.99,-41.6 0,-45.62" style="fill:white;fill-rule:nonzero;"/>
                </g>
            </g>
        </g>
    </g>
</svg>
