<?xml version="1.0" encoding="UTF-8" standalone="no"?>
<!DOCTYPE svg PUBLIC "-//W3C//DTD SVG 1.1//EN" "http://www.w3.org/Graphics/SVG/1.1/DTD/svg11.dtd">
<svg width="100%" height="100%" viewBox="0 0 1393 288" version="1.1" xmlns="http://www.w3.org/2000/svg" xmlns:xlink="http://www.w3.org/1999/xlink" xml:space="preserve" xmlns:serif="http://www.serif.com/" style="fill-rule:evenodd;clip-rule:evenodd;stroke-linejoin:round;stroke-miterlimit:2;">
    <g transform="matrix(1,0,0,1,-2738,-4107)">
        <g transform="matrix(2.67695,0,0,2.67695,0,0)">
            <g transform="matrix(1,0,0,1,-0.49,0.42)">
                <g transform="matrix(1,0,0,1,1118.84,1536.05)">
                    <path d="M0,66.586C-1.06,66.586 -2.08,66.165 -2.83,65.415C-11.29,56.948 -62.79,5.457 -62.79,5.457C-62.79,5.457 -60.44,3.109 -57.33,0L-28.65,0C-27.59,0 -26.57,0.421 -25.82,1.171C-12.87,14.121 3.77,30.766 8.28,35.278C9.03,36.028 10.05,36.45 11.11,36.45L44.99,36.45L44.99,62.586C44.99,64.795 43.2,66.586 40.99,66.586L0,66.586Z" style="fill:rgb(2,2,2);"/>
                </g>
                <g transform="matrix(1,0,0,1,1068.48,1639.09)">
                    <path d="M0,-66.587C1.06,-66.587 2.08,-66.166 2.83,-65.416C11.29,-56.949 62.79,-5.457 62.79,-5.457C62.79,-5.457 60.44,-3.11 57.33,0L28.65,0C27.59,0 26.58,-0.422 25.83,-1.172C12.88,-14.122 -3.77,-30.767 -8.28,-35.279C-9.03,-36.029 -10.05,-36.45 -11.11,-36.45L-44.99,-36.45L-44.99,-62.587C-44.99,-64.796 -43.2,-66.587 -40.99,-66.587L0,-66.587Z" style="fill:rgb(2,2,2);"/>
                </g>
                <g transform="matrix(-1,0,0,1,1147.83,1566.13)">
                    <path d="M-0.01,-31.989C-8.84,-31.989 -16,-24.822 -16,-15.995C-16,-7.167 -8.84,0 -0.01,0C8.82,0 15.99,-7.167 15.99,-15.995C15.99,-24.822 8.82,-31.989 -0.01,-31.989" style="fill:rgb(2,2,2);"/>
                </g>
                <g transform="matrix(1,0,0,1,1039.48,1609.02)">
                    <path d="M0,31.988C-8.83,31.988 -15.99,24.821 -15.99,15.994C-15.99,7.166 -8.83,0 0,0C8.83,0 16,7.166 16,15.994C16,24.821 8.83,31.988 0,31.988" style="fill:rgb(2,2,2);"/>
                </g>
                <g transform="matrix(1,0,0,1,1229.93,1630.53)">
                    <path d="M0,-86.656L-33.18,-86.656L-33.18,0L-22.41,0L-22.41,-33.301L-0.25,-33.301L17.7,0L29.83,0L10.4,-35.405C16.01,-36.973 20.49,-39.965 23.83,-44.38C27.17,-48.796 28.84,-54.016 28.84,-60.04C28.84,-65.405 27.65,-70.088 25.25,-74.091C22.86,-78.094 19.48,-81.189 15.1,-83.376C10.73,-85.563 5.69,-86.656 0,-86.656M-22.41,-43.204L-22.41,-76.753L-0.74,-76.753C4.87,-76.753 9.37,-75.226 12.75,-72.172C16.13,-69.119 17.83,-65.075 17.83,-60.04C17.83,-54.924 16.13,-50.838 12.75,-47.785C9.37,-44.731 4.83,-43.204 -0.87,-43.204L-22.41,-43.204Z" style="fill:rgb(2,2,2);fill-rule:nonzero;"/>
                </g>
                <g transform="matrix(1,0,0,1,1275.55,1570.74)">
                    <path d="M0,56.449C4.74,59.173 10.17,60.535 16.28,60.535C22.38,60.535 27.81,59.173 32.56,56.449C37.3,53.726 41,49.93 43.64,45.06C46.28,40.191 47.6,34.579 47.6,28.224C47.6,21.869 46.28,16.257 43.64,11.388C41,6.519 37.3,2.723 32.56,-0.001C27.81,-2.724 22.38,-4.086 16.28,-4.086C10.17,-4.086 4.74,-2.724 0,-0.001C-4.75,2.723 -8.44,6.519 -11.08,11.388C-13.72,16.257 -15.04,21.869 -15.04,28.224C-15.04,34.579 -13.72,40.191 -11.08,45.06C-8.44,49.93 -4.75,53.726 0,56.449M27.23,48.527C24.06,50.507 20.4,51.498 16.28,51.498C12.15,51.498 8.5,50.507 5.32,48.527C2.14,46.546 -0.31,43.781 -2.04,40.232C-3.78,36.684 -4.64,32.681 -4.64,28.224C-4.64,23.768 -3.78,19.765 -2.04,16.216C-0.31,12.667 2.14,9.903 5.32,7.922C8.5,5.941 12.15,4.951 16.28,4.951C20.4,4.951 24.06,5.941 27.23,7.922C30.41,9.903 32.87,12.667 34.6,16.216C36.33,19.765 37.2,23.768 37.2,28.224C37.2,32.681 36.33,36.684 34.6,40.232C32.87,43.781 30.41,46.546 27.23,48.527" style="fill:rgb(2,2,2);fill-rule:nonzero;"/>
                </g>
                <g transform="matrix(1,0,0,1,1345.43,1599.83)">
                    <path d="M0,-1.733L-24.02,30.701L-12.75,30.701L5.82,5.323L24.39,30.701L36.52,30.701L12.38,-1.733L34.91,-32.434L23.65,-32.434L6.56,-9.037L-10.27,-32.434L-22.41,-32.434L0,-1.733Z" style="fill:rgb(2,2,2);fill-rule:nonzero;"/>
                </g>
                <g transform="matrix(1,0,0,1,1394.76,1570.74)">
                    <path d="M0,56.449C4.75,59.173 10.17,60.535 16.28,60.535C22.39,60.535 27.82,59.173 32.56,56.449C37.31,53.726 41,49.93 43.64,45.06C46.28,40.191 47.6,34.579 47.6,28.224C47.6,21.869 46.28,16.257 43.64,11.388C41,6.519 37.31,2.723 32.56,-0.001C27.82,-2.724 22.39,-4.086 16.28,-4.086C10.17,-4.086 4.75,-2.724 0,-0.001C-4.74,2.723 -8.44,6.519 -11.08,11.388C-13.72,16.257 -15.04,21.869 -15.04,28.224C-15.04,34.579 -13.72,40.191 -11.08,45.06C-8.44,49.93 -4.74,53.726 0,56.449M27.24,48.527C24.06,50.507 20.41,51.498 16.28,51.498C12.16,51.498 8.5,50.507 5.33,48.527C2.15,46.546 -0.31,43.781 -2.04,40.232C-3.77,36.684 -4.64,32.681 -4.64,28.224C-4.64,23.768 -3.77,19.765 -2.04,16.216C-0.31,12.667 2.15,9.903 5.33,7.922C8.5,5.941 12.16,4.951 16.28,4.951C20.41,4.951 24.06,5.941 27.24,7.922C30.42,9.903 32.87,12.667 34.6,16.216C36.34,19.765 37.2,23.768 37.2,28.224C37.2,32.681 36.34,36.684 34.6,40.232C32.87,43.781 30.42,46.546 27.24,48.527" style="fill:rgb(2,2,2);fill-rule:nonzero;"/>
                </g>
                <g transform="matrix(1,0,0,1,1536.76,1623.84)">
                    <path d="M0,-50.508C-4.42,-54.965 -10.18,-57.193 -17.27,-57.193C-27.34,-57.193 -34.65,-53.19 -39.19,-45.185C-40.92,-49.146 -43.54,-52.138 -47.05,-54.16C-50.55,-56.182 -54.58,-57.193 -59.12,-57.193C-66.87,-57.193 -73.02,-54.057 -77.56,-47.785L-78.92,-56.45L-87.71,-56.45L-87.71,6.685L-77.56,6.685L-77.56,-26.616C-77.56,-32.971 -76.06,-38.108 -73.04,-42.028C-70.03,-45.948 -65.97,-47.909 -60.85,-47.909C-55.98,-47.909 -52.23,-46.299 -49.58,-43.081C-46.94,-39.862 -45.62,-35.199 -45.62,-29.092L-45.62,6.685L-35.47,6.685L-35.47,-27.111C-35.47,-33.548 -33.97,-38.624 -30.95,-42.338C-27.94,-46.052 -23.79,-47.909 -18.51,-47.909C-13.73,-47.909 -10.03,-46.299 -7.43,-43.081C-4.83,-39.862 -3.53,-35.199 -3.53,-29.092L-3.53,6.685L6.62,6.685L6.62,-29.711C6.62,-39.119 4.41,-46.052 0,-50.508" style="fill:rgb(2,2,2);fill-rule:nonzero;"/>
                </g>
            </g>
        </g>
    </g>
</svg>
